[AccurateRip ID: 001a98f1-011b7d55-c30c290e] found.
Track   [  CRC   |   V2   ] Status
 01     [ca7c28ae|05754951] (11+02/13) Accurately ripped
 02     [27a605b7|1b5e9353] (11+02/13) Accurately ripped
 03     [6c873346|bb22f52f] (11+02/13) Accurately ripped
 04     [ca6298eb|a0df8292] (11+02/13) Accurately ripped
 05     [13bdfa1b|431a2fcc] (11+02/13) Accurately ripped
 06     [9e5a0a9c|649c8a83] (11+02/13) Accurately ripped
 07     [e992ec4f|41bbc28a] (11+02/13) Accurately ripped
 08     [7ac8ac82|18354cf2] (11+02/13) Accurately ripped
 09     [49c49b04|395a5101] (11+02/13) Accurately ripped
 10     [ab24f8e0|24031b3d] (11+02/13) Accurately ripped
 11     [a043b331|8458b2d2] (11+02/13) Accurately ripped
 12     [f4c70136|1b67c61a] (11+02/13) Accurately ripped
 13     [43a1c430|5fa3a535] (11+02/13) Accurately ripped
 14     [60b187e0|9ba3eca3] (11+02/13) Accurately ripped

 01. E-Type - Set The World On Fire	 03:45 
 02. E-Type - Here I Go Again	 03:54 
 03. E-Type - This Is The Way	 03:56 
 04. E-Type - Paradise (Feat. Nana Hedin)	 03:27 
 05. E-Type - Until The End	 03:32 
 06. E-Type - Russian Lullaby	 03:14 
 07. E-Type - Africa (Feat. Nana Hedin)	 03:38 
 08. E-Type - Calling Your Name	 03:38 
 09. E-Type - Hold Your Horses	 04:01 
 10. E-Type - Fight It Back	 03:28 
 11. E-Type - Angels Crying	 03:50 
 12. E-Type - I Just Wanna Be With You	 03:51 
 13. E-Type - Olympia	 04:06 
 14. E-Type - Campione	 03:33


Apple Lossless